<?xml version="1.0" standalone="no"?><svg xmlns="http://www.w3.org/2000/svg" viewBox="0 0 1440 320"><path fill="#0099ff" fill-opacity="1" d="M0,0L26.7,5.3C53.3,11,107,21,160,21.3C213.3,21,267,11,320,16C373.3,21,427,43,480,85.3C533.3,128,587,192,640,224C693.3,256,747,256,800,229.3C853.3,203,907,149,960,133.3C1013.3,117,1067,139,1120,160C1173.3,181,1227,203,1280,208C1333.3,213,1387,203,1413,197.3L1440,192L1440,320L1413.3,320C1386.7,320,1333,320,1280,320C1226.7,320,1173,320,1120,320C1066.7,320,1013,320,960,320C906.7,320,853,320,800,320C746.7,320,693,320,640,320C586.7,320,533,320,480,320C426.7,320,373,320,320,320C266.7,320,213,320,160,320C106.7,320,53,320,27,320L0,320Z"></path></svg>